<?xml version="1.0" encoding="utf-8"?>
<!-- Generator: Adobe Illustrator 19.0.0, SVG Export Plug-In . SVG Version: 6.00 Build 0)  -->
<svg version="1.1" xmlns="http://www.w3.org/2000/svg" xmlns:xlink="http://www.w3.org/1999/xlink" x="0px" y="0px"
	 viewBox="0 0 960 960" style="enable-background:new 0 0 960 960;" xml:space="preserve">
<style type="text/css">
	.st0{fill:#4A7AE5;}
	.st1{fill:#CCEF6F;stroke:#000000;stroke-miterlimit:10;}
	.st2{opacity:0.63;fill:#4B9EE2;}
	.st3{fill:#BA9061;stroke:#000000;stroke-miterlimit:10;}
	.st4{fill:#917253;stroke:#000000;stroke-miterlimit:10;}
	.st5{fill:#513921;stroke:#000000;stroke-miterlimit:10;}
	.st6{fill:#302214;stroke:#000000;stroke-miterlimit:10;}
	.st7{fill:#846E57;stroke:#000000;stroke-miterlimit:10;}
	.st8{fill:#BFD8E2;stroke:#000000;stroke-miterlimit:10;}
	.st9{fill:url(#XMLID_52_);}
	.st10{fill:url(#XMLID_53_);}
	.st11{fill:#5F96B2;stroke:#000000;stroke-miterlimit:10;}
	.st12{fill:#BFD8E2;}
	.st13{fill:#5F96B2;}
	.st14{fill:#6AEF7D;stroke:#000000;stroke-miterlimit:10;}
	.st15{fill:#FFFFFF;}
</style>
<g id="sky">
	<rect id="XMLID_18_" class="st0" width="960" height="960.5"/>
</g>
<g id="sun">
	<circle id="XMLID_16_" class="st1" cx="479.3" cy="479.8" r="465.7"/>
</g>
<g id="clouds">
	<path id="cld1" class="st2" d="M356.7,259.4l-10.5-0.1c-5.5,0-10.5,3.2-12.6,8.3l-9.7,23c-2.1,5-7.1,8.3-12.5,8.3H173.7
		c-9.1,0-15.6-8.7-13-17.5l1.5-5.1c2.6-8.7-3.9-17.5-13-17.5H66.6c-9.1,0-15.6-8.7-13-17.4l6.1-20.8c1.7-5.8,7-9.8,13-9.8H195
		c5.2,0,10-3,12.3-7.7l15-31.5c2.3-4.7,7-7.7,12.3-7.7h105.1c9,0,15.5,8.6,13.1,17.2l-3.5,12.5c-2.4,8.7,4.1,17.2,13.1,17.2h16.4
		c6.3,0,11.8-4.4,13.2-10.6l3.8-16.9c1.4-6.2,6.9-10.6,13.2-10.6h19.1c8.8,0,15.3,8.3,13.2,16.9l-0.4,1.7
		c-2.2,8.7,4.6,17.1,13.5,16.9h0c8.4-0.2,15,7.2,13.8,15.5l-2.6,18.1c-0.9,6.4-6.2,11.2-12.6,11.6l-28.4,1.8c-5.5,0.3-10.2,4-12,9.2
		l-1.8,5.2c-1.9,5.5-7,9.2-12.9,9.2h-45.4"/>
	<path id="cld2" class="st2" d="M641.8,290l10.5-0.1c5.5,0,10.5,3.2,12.6,8.3l9.7,23c2.1,5,7.1,8.3,12.5,8.3h137.7
		c9.1,0,15.6-8.7,13-17.5l-1.5-5.1c-2.6-8.7,3.9-17.5,13-17.5h82.6c9.1,0,15.6-8.7,13-17.4l-6.1-20.8c-1.7-5.8-7-9.8-13-9.8H803.6
		c-5.2,0-10-3-12.3-7.7l-15-31.5c-2.3-4.7-7-7.7-12.3-7.7H658.9c-9,0-15.5,8.6-13.1,17.2l3.5,12.5c2.4,8.7-4.1,17.2-13.1,17.2h-16.4
		c-6.3,0-11.8-4.4-13.2-10.6l-3.8-16.9c-1.4-6.2-6.9-10.6-13.2-10.6h-19.1c-8.8,0-15.3,8.3-13.2,16.9l0.4,1.7
		c2.2,8.7-4.6,17.1-13.5,16.9h0c-8.4-0.2-15,7.2-13.8,15.5l2.6,18.1c0.9,6.4,6.2,11.2,12.6,11.6l28.4,1.8c5.5,0.3,10.2,4,12,9.2
		l1.8,5.2c1.9,5.5,7,9.2,12.9,9.2H646"/>
</g>
<g id="notreDame">
	<g id="XMLID_33_">
		<polygon id="XMLID_49_" class="st3" points="95.5,290 201.2,836.7 428.2,763.2 343,322.9 269.4,312.4 298.5,462.7 220.3,461.5 
			188.3,300.7 		"/>
		<polygon id="XMLID_48_" class="st3" points="135.1,837.5 37.5,333 95.5,290 201.2,836.7 		"/>
		<polygon id="XMLID_47_" class="st4" points="212.2,352.2 233.4,462.1 298.5,462.7 269.4,312 		"/>
		
			<ellipse id="XMLID_46_" transform="matrix(0.9818 -0.1899 0.1899 0.9818 -108.6327 65.4191)" class="st5" cx="287.1" cy="599.7" rx="26.6" ry="32.5"/>
		<path id="XMLID_45_" class="st6" d="M132.1,352.7c-0.2,2.6,20.7,106.9,20.7,106.9l15.1,0.2l-18.6-105.1c0,0-1.1-7.7-10.6-11.2
			C138.7,343.5,132.6,346,132.1,352.7z"/>
		<path id="XMLID_44_" class="st6" d="M160.2,353.9c-0.2,2.6,20.7,106.9,20.7,106.9l15.1,0.2l-18.6-105.1c0,0-1.1-7.7-10.6-11.2
			C166.8,344.7,160.6,347.2,160.2,353.9z"/>
		<path id="XMLID_43_" class="st6" d="M296.8,361.5c-0.2,2.5,19.6,101.4,19.6,101.4l14.3,0.2l-17.6-99.7c0,0-1-7.3-10-10.6
			C303.1,352.7,297.2,355.1,296.8,361.5z"/>
		<path id="XMLID_42_" class="st6" d="M323.4,362.6C323.2,365.1,343,464,343,464l14.3,0.2l-17.6-99.7c0,0-1-7.3-10-10.6
			C329.7,353.9,323.9,356.3,323.4,362.6z"/>
		<path id="XMLID_41_" class="st6" d="M94.9,355.9c1.2,2.4,20.7,106.9,20.7,106.9l-14.2,8.5L79.7,364.1c0,0-1.9-7.6,5.6-14.3
			C85.3,349.8,92,349.8,94.9,355.9z"/>
		<path id="XMLID_40_" class="st6" d="M69.8,370c1.2,2.4,20.7,106.9,20.7,106.9l-13.1,8.3L54.6,378.3c0,0-1.9-7.6,5.6-14.3
			C60.2,363.9,66.9,364,69.8,370z"/>
		<g id="XMLID_37_">
			<path id="XMLID_39_" class="st7" d="M303.9,693.2c0,0,44.6-5.1,53.6,91.7l-33.9,10.5"/>
			<path id="XMLID_38_" class="st7" d="M304,693.1c0,0-43.8,20.4-16.1,113.6l35.8-11.4"/>
		</g>
		<g id="XMLID_34_">
			<path id="XMLID_36_" class="st7" d="M227.4,727.5c0,0,41-4.7,49.3,84.3l-31.1,9.7"/>
			<path id="XMLID_35_" class="st7" d="M227.5,727.4c0,0-40.3,18.8-14.8,104.4l32.9-10.4"/>
		</g>
		<g id="XMLID_20_">
			<path id="XMLID_22_" class="st7" d="M379.5,686.5c0,0,37.7-4.3,45.2,77.3l-28.6,8.9"/>
			<path id="XMLID_21_" class="st7" d="M379.6,686.5c0,0-36.9,17.2-13.6,95.8l30.2-9.6"/>
		</g>
		<polygon id="XMLID_23_" class="st6" points="43.8,337.7 92.5,301.8 94.6,312.7 45.5,346.9 		"/>
		<polygon id="XMLID_24_" class="st6" points="185.7,318 104.7,310.1 102.1,297.1 183.4,306.1 		"/>
		<polygon id="XMLID_25_" class="st6" points="340.6,335.6 278.2,328.2 276.3,318.2 338.8,326.4 		"/>
		<polygon id="XMLID_26_" class="st6" points="216.6,354.7 265.6,320 267.7,330.9 218.4,363.8 		"/>
		<polygon id="XMLID_28_" class="st6" points="193.3,641.4 204.1,639.3 199.8,617 192.3,607.4 188.4,618.8 		"/>
		<polygon id="XMLID_27_" class="st6" points="217.5,636.7 228.4,634.6 224.1,612.3 216.6,602.7 212.7,614.1 		"/>
		<polygon id="XMLID_30_" class="st6" points="351,621.5 360.7,619.7 357,600.7 350.4,592.6 347,602.3 		"/>
		<polygon id="XMLID_29_" class="st6" points="371.6,617.6 381.1,615.7 377.4,596.8 370.9,588.7 367.5,598.3 		"/>
		<circle id="XMLID_31_" class="st6" cx="198.8" cy="580.3" r="9.8"/>
		<circle id="XMLID_32_" class="st6" cx="356.4" cy="564.6" r="8.7"/>
	</g>
</g>
<g id="luwr">
	<g id="XMLID_15_">
		<polygon id="XMLID_3_" class="st8" points="696.7,409.3 291.2,838.9 647.8,875.6 957.6,907.4 		"/>
		
			<radialGradient id="XMLID_52_" cx="601.9229" cy="771.8781" r="125.3321" gradientTransform="matrix(0.5903 -0.8072 0.8091 0.5917 -402.5329 737.6076)" gradientUnits="userSpaceOnUse">
			<stop  offset="0" style="stop-color:#FFFFFF"/>
			<stop  offset="0.1462" style="stop-color:#F7FBFC"/>
			<stop  offset="0.3749" style="stop-color:#E1F0F5"/>
			<stop  offset="0.6574" style="stop-color:#BCDFE9"/>
			<stop  offset="0.9801" style="stop-color:#8AC7D9"/>
			<stop  offset="1" style="stop-color:#87C5D8"/>
		</radialGradient>
		<polygon id="XMLID_4_" class="st9" points="331.9,819.5 695.3,856.8 691.4,424 		"/>
		
			<radialGradient id="XMLID_53_" cx="169.4491" cy="798.0149" r="111.307" gradientTransform="matrix(-0.4136 -0.9104 -0.9126 0.4146 1566.9514 577.7701)" gradientUnits="userSpaceOnUse">
			<stop  offset="0" style="stop-color:#FFFFFF"/>
			<stop  offset="0.1462" style="stop-color:#F7FBFC"/>
			<stop  offset="0.3749" style="stop-color:#E1F0F5"/>
			<stop  offset="0.6574" style="stop-color:#BCDFE9"/>
			<stop  offset="0.9801" style="stop-color:#8AC7D9"/>
			<stop  offset="1" style="stop-color:#87C5D8"/>
		</radialGradient>
		<polygon id="XMLID_2_" class="st10" points="929.2,907.1 727.4,884.7 699.4,451.1 		"/>
	</g>
</g>
<g id="eifflaTower_1_">
	<g id="XMLID_1_">
		<path id="eifflaTower" class="st11" d="M624,785.5l-62-163.4l-2-13.6h-3l-0.4-10.3l4-8.8H551l-25.7-116.2c0,0,11.3-17.2-6-27.8
			c0,0-14-92.3-19.3-325.6l2.5-7.8l0.5-21.6c0,0-8.5-4-0.5-6.5l1.5-10l-12.5-38c0,0,2-18.5-2.5-20c-4.5,1.5-2.5,20-2.5,20L474,74
			l1.5,10c8,2.5-0.5,6.5-0.5,6.5l0.5,21.5l2.5,7.7C472.7,353,458.7,445,458.7,445c-17.3,10.7-6,28.3-6,28.3L427,589.5h-9.7l4,8.8
			l-0.4,10.3h-3l-2,13.6l-62,163.4h54c0,0-2.1-119,80.9-120h0.2c83,1,80.9,120,80.9,120H624z M574.7,731.5l4.3-7.8l2,7.8H574.7z
			 M585.7,739.5l1.7,3.7l-6.3-3.7H585.7z M579,744.7l10.3,9.3l-5.2,9.7L579,744.7z M589.3,771.5l5-9.5l2,9.5H589.3z M603,771.5
			l-2-5.8l7,5.8H603z M608,760l-10.7-7.7l5-7.7L608,760z M594.7,746.8l-3.3-7.3h6L594.7,746.8z M585.5,729v-4.3l5.5,4.5L585.5,729z
			 M592.8,720l-10.2-7.7l4.8-7.7L592.8,720z M579,709.5l-1.2-8h6.3L579,709.5z M574,694.5l-0.5-5.2l5.5,5.2H574z M579,682l-11-7.2
			l5.5-7.2L579,682z M571.5,700.5v4.5l-5.5-4.5H571.5z M564.8,670.3l-3.2-9.3l8.1,1L564.8,670.3z M561.8,636.8
			c1.3,0,2.4,1.1,2.4,2.4c0,1.3-1.1,2.4-2.4,2.4s-2.4-1.1-2.4-2.4C559.3,637.8,560.4,636.8,561.8,636.8z M556.8,659.7l2.2,8l-7-6.7
			L556.8,659.7z M527.8,636.8c1.3,0,2.4,1.1,2.4,2.4c0,1.3-1.1,2.4-2.4,2.4s-2.4-1.1-2.4-2.4C525.3,637.8,526.4,636.8,527.8,636.8z
			 M489,380.7c-0.2-3.3-0.2-5.4,0-7.4c0-0.2,0,0.2,0,0.2h0.1c0,0,0-0.8,0-0.7c0.2,2,0.2,5.2,0,8.5c1,22,8.1,68.2,8.1,68.2H489h-8
			C481,449.5,488,402.7,489,380.7z M476.7,498.5h25.7l14.7,91h-56L476.7,498.5z M484.5,595.5v13h-9v-13H484.5z M450.8,636.8
			c1.3,0,2.4,1.1,2.4,2.4c0,1.3-1.1,2.4-2.4,2.4s-2.4-1.1-2.4-2.4C448.3,637.8,449.4,636.8,450.8,636.8z M417.8,636.8
			c1.3,0,2.4,1.1,2.4,2.4c0,1.3-1.1,2.4-2.4,2.4s-2.4-1.1-2.4-2.4C415.3,637.8,416.4,636.8,417.8,636.8z M417.3,660l-3.2,9.3
			l-4.9-8.3L417.3,660z M405.5,666.7l5.5,7.2l-11,7.2L405.5,666.7z M405.5,688.3l-0.5,5.2h-5L405.5,688.3z M413,699.5l-9.5,4.5v-4.5
			H413z M401.2,700.5l-1.2,8l-5.2-8H401.2z M391.5,703.7l4.8,7.7l-10.2,7.7L391.5,703.7z M398,738.5l-6.3,3.7l1.7-3.7H398z
			 M389.5,723.7v4.3l-5.5,0.2L389.5,723.7z M376,770.5h-5l7-5.8L376,770.5z M371,759l5.7-15.3l5,7.7L371,759z M387.7,738.5l-3.3,7.3
			l-2.7-7.3H387.7z M382.7,770.5l2-9.5l5,9.5H382.7z M394.8,762.7l-5.2-9.7l10.3-9.3L394.8,762.7z M398,730.5l2-7.8l4.3,7.8H398z
			 M408,723.7l-3.7-10l9.7-7.3L408,723.7z M411,693.5l2-9.2l4.3,9.2H411z M421.3,686.3l-4-9l9.7-8L421.3,686.3z M420,666.7l2.2-8
			l4.8,1.3L420,666.7z M426.8,641.6c-1.3,0-2.4-1.1-2.4-2.4c0-1.3,1.1-2.4,2.4-2.4s2.4,1.1,2.4,2.4
			C429.2,640.5,428.1,641.6,426.8,641.6z M433.3,639.2c0-1.3,1.1-2.4,2.4-2.4s2.4,1.1,2.4,2.4c0,1.3-1.1,2.4-2.4,2.4
			S433.3,640.5,433.3,639.2z M435.8,664.8l2.4-4.4l10.2-7.9h9.7L435.8,664.8z M459.8,641.6c-1.3,0-2.4-1.1-2.4-2.4
			c0-1.3,1.1-2.4,2.4-2.4s2.4,1.1,2.4,2.4C462.2,640.5,461.1,641.6,459.8,641.6z M461.5,608.5H458l3-13h0.5V608.5z M468.8,641.6
			c-1.3,0-2.4-1.1-2.4-2.4c0-1.3,1.1-2.4,2.4-2.4s2.4,1.1,2.4,2.4C471.2,640.5,470.1,641.6,468.8,641.6z M473.5,608.5h-9v-13h9
			V608.5z M479.8,641.6c-1.3,0-2.4-1.1-2.4-2.4c0-1.3,1.1-2.4,2.4-2.4s2.4,1.1,2.4,2.4C482.2,640.5,481.1,641.6,479.8,641.6z
			 M488.8,641.6c-1.3,0-2.4-1.1-2.4-2.4c0-1.3,1.1-2.4,2.4-2.4s2.4,1.1,2.4,2.4C491.2,640.5,490.1,641.6,488.8,641.6z M497.8,641.6
			c-1.3,0-2.4-1.1-2.4-2.4c0-1.3,1.1-2.4,2.4-2.4s2.4,1.1,2.4,2.4C500.2,640.5,499.1,641.6,497.8,641.6z M498.5,608.5h-9v-13h9
			V608.5z M500.5,595.5h9v13h-9V595.5z M509.8,641.6c-1.3,0-2.4-1.1-2.4-2.4c0-1.3,1.1-2.4,2.4-2.4s2.4,1.1,2.4,2.4
			C512.2,640.5,511.1,641.6,509.8,641.6z M512.5,595.5h5l3,13h-8V595.5z M518.8,641.6c-1.3,0-2.4-1.1-2.4-2.4c0-1.3,1.1-2.4,2.4-2.4
			s2.4,1.1,2.4,2.4C521.2,640.5,520.1,641.6,518.8,641.6z M520.8,652.5h9.7l10.2,7.4l2.4,5.4L520.8,652.5z M543.8,641.6
			c-1.3,0-2.4-1.1-2.4-2.4c0-1.3,1.1-2.4,2.4-2.4s2.4,1.1,2.4,2.4C546.2,640.5,545.1,641.6,543.8,641.6z M550.3,639.2
			c0-1.3,1.1-2.4,2.4-2.4s2.4,1.1,2.4,2.4c0,1.3-1.1,2.4-2.4,2.4S550.3,640.5,550.3,639.2z M552,670.3l9.7,8l-4,9L552,670.3z
			 M566,685.3l2,9.2h-6.3L566,685.3z M565,707.3l9.7,7.3l-3.7,10L565,707.3z"/>
		<path id="XMLID_5_" class="st12" d="M489.2,34L503,74.3l-1.4,7.8c-8.5,5.1-0.1,9.6-0.1,9.6l-0.4,20.3l-2,5H489h-9.8l-2-5
			l-0.4-20.3c0,0,8.4-4.5-0.1-9.6l-1.4-7.8L489,34H489.2z"/>
		<path id="XMLID_6_" class="st13" d="M479.7,81.8c0,0,6.3,3.2,0,10.2h9.3V82L479.7,81.8z"/>
		<path id="XMLID_7_" class="st13" d="M498.2,81.8c0,0-6.5,3.2-0.2,10.2h-9V82L498.2,81.8z"/>
		<polygon id="XMLID_8_" class="st13" points="478,73.8 489,41 489,74 		"/>
		<polygon id="XMLID_9_" class="st13" points="479.6,112 481.2,116 489,116 489.2,112 		"/>
		<polygon id="XMLID_10_" class="st13" points="498.2,112 496.6,116 488.8,116 488.6,112 		"/>
		<polygon id="XMLID_11_" class="st12" points="489.4,292.5 484.4,363 494,363 		"/>
		<polygon id="XMLID_12_" class="st12" points="433,590 453,590 471.2,499 452,499 		"/>
		<polygon id="XMLID_13_" class="st12" points="545.2,589 525.2,589 507,498 526.2,498 		"/>
		<path id="XMLID_14_" class="st12" d="M489,473h-30c0,0-4.8-3-5-14h35V473z"/>
		<path id="XMLID_17_" class="st12" d="M489,473h30c0,0,4.8-3,5-14h-35V473z"/>
	</g>
</g>
<g id="grass">
	<path id="XMLID_19_" class="st14" d="M959.9,869.1C836.3,815.3,672,733.8,478.5,733.8c-194.4,0-370,52.4-479,131.8v96l960.5-1
		L959.9,869.1z"/>
</g>
<g id="star">
	<polygon id="XMLID_50_" class="st15" points="613.1,492.3 658.3,514.9 689.7,478.1 672,522.4 703.9,554.7 662,529 627.3,568.9 
		653.2,524.1 	"/>
</g>
</svg>
